<?xml version="1.0" standalone="no"?>
<!DOCTYPE svg PUBLIC "-//W3C//DTD SVG 20010904//EN"
 "http://www.w3.org/TR/2001/REC-SVG-20010904/DTD/svg10.dtd">
<svg version="1.0" xmlns="http://www.w3.org/2000/svg"
 width="276.000000pt" height="231.000000pt" viewBox="0 0 276.000000 231.000000"
 preserveAspectRatio="xMidYMid meet">

<g transform="translate(0.000000,231.000000) scale(0.100000,-0.100000)"
fill="#000000" stroke="none">
<path d="M661 1693 c204 -214 566 -600 616 -657 34 -39 103 -114 155 -166 82
-85 100 -98 153 -115 85 -26 224 -31 305 -11 76 19 180 69 209 100 l21 22 -44
43 -43 42 -37 -25 c-128 -87 -325 -89 -457 -5 -44 28 -105 88 -233 229 -32 36
-172 183 -309 328 l-251 262 -65 0 -65 0 45 -47z"/>
<path d="M1593 1716 c-155 -50 -253 -143 -309 -293 l-25 -66 58 -59 c63 -64
67 -63 76 19 13 112 107 232 214 273 122 47 275 34 378 -31 25 -16 47 -29 50
-29 2 0 21 21 41 46 l38 46 -25 19 c-118 94 -335 127 -496 75z"/>
<path d="M590 1188 c0 -285 4 -448 10 -450 5 -2 35 -1 65 0 l55 4 0 376 -1
377 -64 70 -65 69 0 -446z"/>
<path d="M90 311 c0 -119 0 -119 25 -123 l25 -5 0 87 c0 96 13 120 61 120 52
0 63 -20 65 -116 1 -81 3 -88 23 -91 20 -3 21 1 21 96 0 84 -3 102 -21 125
-17 21 -29 26 -66 26 -29 0 -53 -6 -65 -17 -17 -15 -18 -15 -18 0 0 11 -8 17
-25 17 l-25 0 0 -119z"/>
<path d="M438 412 c-16 -9 -35 -31 -43 -48 -44 -93 25 -190 128 -181 54 5 94
32 76 53 -9 11 -16 11 -41 -2 -39 -20 -92 -11 -113 19 -8 12 -15 25 -15 29 0
5 43 8 95 8 l95 0 0 35 c0 24 -9 45 -31 70 -27 31 -37 35 -78 35 -25 0 -58 -8
-73 -18z m114 -39 c36 -32 23 -43 -52 -43 -38 0 -70 3 -70 7 0 4 10 17 22 30
26 27 73 30 100 6z"/>
<path d="M690 334 c0 -92 1 -97 29 -125 34 -33 83 -39 119 -13 18 13 22 13 22
1 0 -10 8 -13 25 -9 25 4 25 4 25 123 l0 119 -25 0 c-24 0 -24 -2 -27 -92 -3
-92 -3 -93 -32 -107 -26 -12 -33 -12 -55 0 -25 14 -26 20 -29 107 -3 90 -3 92
-27 92 -25 0 -25 -1 -25 -96z"/>
<path d="M990 312 c0 -65 3 -121 6 -124 3 -3 14 -4 25 -1 17 5 19 15 19 82 0
89 11 110 60 120 50 10 54 41 6 41 -19 0 -42 -7 -50 -16 -15 -14 -16 -14 -16
0 0 10 -9 16 -25 16 l-25 0 0 -118z"/>
<path d="M1215 398 c-91 -84 -27 -226 98 -215 115 10 163 148 76 221 -25 21
-41 26 -85 26 -47 0 -59 -4 -89 -32z m142 -30 c44 -41 24 -128 -33 -142 -81
-21 -138 81 -79 139 31 32 80 33 112 3z"/>
<path d="M1534 396 c-29 -29 -34 -41 -34 -80 0 -59 21 -101 62 -122 38 -20
101 -14 129 12 27 24 8 41 -22 20 -55 -38 -126 -2 -136 70 -10 78 72 133 134
89 16 -11 24 -12 29 -3 13 20 -35 48 -83 48 -38 0 -50 -5 -79 -34z"/>
<path d="M1822 417 c-77 -43 -80 -158 -5 -217 35 -28 114 -24 144 7 81 80 33
224 -74 223 -23 -1 -52 -6 -65 -13z m103 -23 c22 -9 45 -57 45 -94 0 -22 -10
-41 -30 -62 -27 -26 -36 -30 -68 -24 -47 7 -71 39 -72 92 0 74 57 114 125 88z"/>
<path d="M2082 308 c3 -101 6 -123 18 -123 12 0 16 19 20 88 4 78 8 91 29 108
13 10 34 19 47 19 15 0 24 6 24 15 0 22 -56 19 -80 -5 l-20 -20 0 20 c0 13 -7
20 -20 20 -20 0 -20 -5 -18 -122z"/>
<path d="M2313 410 c-38 -23 -59 -80 -49 -133 10 -53 65 -97 119 -97 45 0 87
22 87 46 0 18 -10 17 -34 -1 -47 -35 -136 1 -136 55 0 19 6 20 96 20 l97 0 -6
38 c-13 79 -102 117 -174 72z m121 -32 c9 -12 16 -30 16 -40 0 -16 -10 -18
-75 -18 -66 0 -75 2 -75 18 0 56 102 86 134 40z"/>
</g>
</svg>
